# xmcd CD database file
#
# Track frame offsets:
#	150
#	17071
#	32918
#	50769
#	70341
#	85885
#	102941
#	127169
#	144152
#	156224
#	178690
#	189697
#	205959
#	223816
#
# Disc length: 3209 seconds
#
# Revision: 0
# Processed by: cddbd v1.5.2PL0 Copyright (c) Steve Scherf et al.
# Submitted via: CDex 1.70beta2
#
DISCID=d40c870e
DTITLE=Billy Ray Cyrus - Storm In The Heartland
DYEAR=1900
DGENRE=Country
TTITLE0=Storm In The Heartland
TTITLE1=Deja Blue
TTITLE2=Redneck Heaven
TTITLE3=Casualty Of Love
TTITLE4=One Last Thrill
TTITLE5=I Ain't Even Left
TTITLE6=How Much
TTITLE7=Patsy Come Home
TTITLE8=A Heart With Your Name On It
TTITLE9=Only God Could Stop Me Loving You
TTITLE10=Roll Me Over
TTITLE11=Enough Is Enough
TTITLE12=The Past
TTITLE13=Geronimo
EXTD=
EXTT0=
EXTT1=
EXTT2=
EXTT3=
EXTT4=
EXTT5=
EXTT6=
EXTT7=
EXTT8=
EXTT9=
EXTT10=
EXTT11=
EXTT12=
EXTT13=
PLAYORDER=
